<?xml version="1.0" standalone="no"?><!DOCTYPE svg PUBLIC "-//W3C//DTD SVG 1.1//EN" "http://www.w3.org/Graphics/SVG/1.1/DTD/svg11.dtd"><svg t="1680968743371" class="icon" viewBox="0 0 1024 1024" version="1.1" xmlns="http://www.w3.org/2000/svg" p-id="2393" xmlns:xlink="http://www.w3.org/1999/xlink" width="200" height="200"><path d="M266.116 746.398l11.434 11.435-104.272 104.272-11.435-11.434zM777.827 281.132l11.434-11.436 25.48 25.475-11.435 11.437z m9.447 41.503l-25.476-25.476 11.435-11.434 25.476 25.476zM717.356 220.756l11.438-11.435 25.472 25.48-11.438 11.434z m9.454 41.446l-25.476-25.477 11.435-11.435 25.477 25.476z" fill="#1A1A28" p-id="2394"></path><path d="M463.02 779.508s1.667-28.365 33.37-41.714c0 0-33.37-18.354-16.686-48.389 0 0 27.529-104.285 90.937-90.935l20.021 8.343s-0.836-19.188 34.203-32.537c0 0 87.6-39.211 26.695-138.49 0 0-11.576-20.065-25.74-37.572l0.006-0.005-0.025-0.021a0.155 0.155 0 0 1-0.021-0.025l-0.004 0.005c-17.51-14.164-37.49-25.824-37.49-25.824-99.276-60.901-138.488 26.697-138.488 26.697-13.348 35.039-32.536 34.205-32.536 34.205l8.343 20.022c13.348 63.406-90.935 90.935-90.935 90.935-30.034 16.687-48.388-16.685-48.388-16.685-13.348 31.702-41.713 33.371-41.713 33.371-70.914 19.188-78.422 78.422-78.422 78.422-7.403 83.084 60.625 153.998 62.525 155.961l-0.083 0.083s71.749 70.081 156.011 62.574c-0.002 0.001 59.232-7.508 78.42-78.421z" fill="#CC582F" p-id="2395"></path><path d="M219.684 804.242a12.398 12.398 0 0 1-1.354-1.602c-10.156-10.953-72.111-81.504-64.718-164.445 0.013-0.155 0.03-0.31 0.05-0.466 0.091-0.715 2.363-17.766 14.425-37.09 10.993-17.608 32.611-40.904 73.182-51.882 0.909-0.247 1.552-0.376 2.479-0.412 1.645-0.16 21.178-2.533 30.934-25.705a12.574 12.574 0 0 1 10.929-7.674 12.563 12.563 0 0 1 11.667 6.495v-0.001c0.002 0.003 2.143 3.739 5.905 7.5 10.455 10.454 19.047 7.767 25.366 4.256a12.525 12.525 0 0 1 2.896-1.165c0.909-0.243 91.267-24.887 82.058-75.111l-7.857-18.861a12.567 12.567 0 0 1 11.486-17.402c1.003-0.152 11.853-2.349 20.907-26.113 0.085-0.222 0.176-0.442 0.273-0.66 0.715-1.597 17.976-39.265 58.351-51.748 29.282-9.053 62.276-2.523 98.071 19.405 1.91 1.123 21.189 12.532 38.611 26.576a12.681 12.681 0 0 1 1.354 1.185c0.416 0.415 0.797 0.855 1.148 1.32 13.996 17.369 25.301 36.648 26.496 38.709 21.918 35.784 28.441 68.772 19.391 98.047-12.48 40.372-50.148 57.634-51.746 58.35-0.219 0.097-0.439 0.188-0.66 0.272-23.764 9.053-25.961 19.902-26.113 20.906a12.561 12.561 0 0 1-5.369 10.19 12.572 12.572 0 0 1-12.031 1.297l-18.863-7.86c-50.225-9.209-74.867 81.148-75.111 82.069a12.693 12.693 0 0 1-1.162 2.886c-3.511 6.318-6.199 14.912 4.254 25.366 3.778 3.778 7.53 5.922 7.567 5.942a12.51 12.51 0 0 1 6.461 11.648c-0.252 4.813-3.266 9.04-7.707 10.911-23.178 9.758-25.546 29.3-25.704 30.935-0.037 0.927-0.166 1.569-0.412 2.478-10.978 40.57-34.273 62.189-51.883 73.183-19.324 12.063-36.374 14.334-37.089 14.425-0.155 0.02-0.31 0.037-0.465 0.051-37.06 3.301-77.533-7.117-117.044-30.131-29.476-17.166-48.087-35.211-48.865-35.971-0.039-0.033-0.074-0.069-0.108-0.103zM178.62 640.754c-3.43 39.651 12.329 76.627 26.176 100.689 15.589 27.094 32.189 44.365 32.888 45.087 0.263 0.272 0.514 0.556 0.749 0.846 9.048 8.319 72.873 64.286 144.729 58.063 3.65-0.553 50.901-8.843 67.454-68.277 0.726-5.854 4.579-26.023 24.028-41.178-13.445-15.156-15.88-33.6-6.69-51.287 1.756-6.151 8.995-29.729 22.681-52.285 28.295-46.63 60.524-50.883 82.579-46.238 0.77 0.161 1.52 0.395 2.246 0.696l7.75 3.231c5.225-8.811 15.715-19.303 36.721-27.396 2.666-1.297 29.307-14.88 37.865-42.976 6.713-22.047 1.006-48.079-16.963-77.371a13.97 13.97 0 0 1-0.174-0.291c-0.107-0.186-10.834-18.683-23.814-34.94-16.33-13.045-34.721-23.818-34.908-23.928a14.756 14.756 0 0 1-0.236-0.142c-29.402-18.036-55.514-23.716-77.614-16.884-28.181 8.713-41.389 34.977-42.721 37.765-8.095 21.021-18.594 31.519-27.406 36.746l3.229 7.751c0.302 0.726 0.536 1.477 0.698 2.245 4.643 22.054 0.39 54.282-46.241 82.58-22.553 13.685-46.13 20.924-52.284 22.68-17.686 9.189-36.13 6.755-51.287-6.688-15.155 19.451-35.324 23.304-41.177 24.029-59.197 16.483-67.656 63.422-68.278 67.473z" fill="#1A1A28" p-id="2396"></path><path d="M520.141 546.481l-42.659-42.657 327.041-314.005 29.623 29.623z" fill="#444444" p-id="2397"></path><path d="M511.264 555.38l-0.011-0.011-42.658-42.658a12.568 12.568 0 0 1 0.204-17.973l327.039-314.005c4.938-4.72 12.742-4.631 17.57 0.198l29.623 29.624c4.83 4.829 4.92 12.632 0.201 17.57l-313.55 326.563a13.02 13.02 0 0 1-0.643 0.691c-4.908 4.909-12.865 4.909-17.775 0.001z m-15.804-51.353l24.476 24.478L816.57 219.64l-12.248-12.247L495.46 504.027z" fill="#1A1A28" p-id="2398"></path><path d="M299.577 681.753l42.657 42.658-55.099 42.065-29.623-29.622z" fill="#444444" p-id="2399"></path><path d="M308.452 672.855l0.012 0.012 42.657 42.658a12.568 12.568 0 0 1-0.203 17.972l-55.099 42.064c-4.938 4.719-12.74 4.631-17.57-0.2l-29.623-29.622c-4.83-4.83-4.918-12.633-0.199-17.571l41.609-54.622a13 13 0 0 1 0.642-0.691c4.908-4.908 12.865-4.908 17.774 0z m15.805 51.352L299.78 699.73l-24.693 36.924 12.247 12.246 36.923-24.693z" fill="#1A1A28" p-id="2400"></path><path d="M816.365 250.244l-42.658-42.657 55.1-42.065 29.623 29.623z" fill="#CC582F" p-id="2401"></path><path d="M807.492 259.143l-0.014-0.012-42.658-42.657a12.57 12.57 0 0 1 0.205-17.973l55.1-42.064c4.938-4.719 12.74-4.631 17.57 0.198l29.623 29.623c4.83 4.831 4.918 12.634 0.197 17.571l-41.609 54.623c-0.203 0.236-0.418 0.468-0.643 0.692-4.908 4.907-12.865 4.907-17.771-0.001z m-15.806-51.353l24.477 24.477 24.693-36.923-12.246-12.247-36.924 24.693z" fill="#1A1A28" p-id="2402"></path><path d="M266.043 727.729l30.216 30.214-48.582 48.584-29.623-29.624z" fill="#444444" p-id="2403"></path><path d="M274.919 718.83a0.13 0.13 0 0 1 0.011 0.012l30.216 30.217a12.567 12.567 0 0 1-0.204 17.971l-48.582 48.582c-4.938 4.72-12.741 4.632-17.57-0.199l-29.623-29.623c-4.83-4.829-4.918-12.633-0.199-17.571l47.534-48.697c0.205-0.236 0.418-0.467 0.643-0.691 4.908-4.908 12.866-4.908 17.774-0.001z m3.363 38.911l-12.035-12.035-30.618 30.998 12.247 12.246 30.406-31.209zM443.301 716.884c3.742-5.404 2.653-12.708-2.307-16.826-1.129-4.8 3.566-22.077 17.104-39.862 15.941-20.938 21.512-37.503 17.028-50.641-3.144-9.218-10.692-14.216-16.201-15.694-6.703-1.801-13.597 2.173-15.398 8.877-1.706 6.349 1.769 12.869 7.839 15.07 0.23 1.207 0.815 8.664-13.267 27.162-11.935 15.679-24.835 40.521-21.915 58.936 1.03 6.489 3.801 10.823 6.636 13.657a21.783 21.783 0 0 0 2.994 2.501c5.707 3.95 13.537 2.526 17.487-3.18z m-13.185-151.835c-1.478-5.509-6.476-13.056-15.693-16.2-13.139-4.483-29.703 1.088-50.643 17.028-17.784 13.537-35.061 18.233-39.861 17.104-4.118-4.96-11.421-6.048-16.825-2.307-5.708 3.951-7.131 11.779-3.181 17.486a21.665 21.665 0 0 0 2.5 2.994c2.835 2.835 7.169 5.605 13.659 6.636 18.415 2.922 43.256-9.979 58.935-21.914 18.498-14.084 25.956-13.497 27.162-13.268 2.202 6.07 8.723 9.545 15.071 7.838 6.703-1.799 10.677-8.694 8.876-15.397z" fill="#1A1A28" p-id="2404"></path></svg>